<svg width="900" height="1200" viewBox="0 0 900 1200" fill="none" xmlns="http://www.w3.org/2000/svg">
  <rect width="900" height="1200" rx="48" fill="#ECEFF3"/>
  <rect x="64" y="64" width="772" height="1072" rx="40" fill="white"/>
  <rect x="120" y="128" width="660" height="380" rx="28" fill="#D8DEE8"/>
  <rect x="154" y="164" width="592" height="308" rx="20" fill="#F7F8FA"/>
  <rect x="200" y="214" width="150" height="208" rx="8" fill="#C6D0DF"/>
  <rect x="374" y="186" width="330" height="236" rx="8" fill="#1A1A1A"/>
  <rect x="410" y="222" width="100" height="24" rx="12" fill="#1747FF"/>
  <rect x="410" y="266" width="220" height="16" rx="8" fill="#DEE4EE"/>
  <rect x="410" y="298" width="188" height="16" rx="8" fill="#DEE4EE"/>
  <rect x="410" y="330" width="146" height="16" rx="8" fill="#DEE4EE"/>
  <path d="M110 670C222 618 311 595 388 600C485 606 545 655 632 652C711 650 766 622 806 594V1118H110V670Z" fill="#EEF2FF"/>
  <path d="M110 720C210 688 289 674 368 676C470 678 545 736 634 736C710 736 760 711 806 684V1118H110V720Z" fill="#DCE7FF"/>
  <circle cx="268" cy="780" r="58" fill="#111111"/>
  <rect x="216" y="844" width="104" height="176" rx="36" fill="#111111"/>
  <rect x="172" y="900" width="64" height="174" rx="28" fill="#1747FF"/>
  <rect x="300" y="900" width="64" height="174" rx="28" fill="#C7D4FF"/>
  <circle cx="450" cy="744" r="66" fill="#D5DDEB"/>
  <rect x="384" y="816" width="132" height="210" rx="42" fill="#D5DDEB"/>
  <rect x="350" y="884" width="56" height="186" rx="28" fill="#111111"/>
  <rect x="494" y="884" width="56" height="186" rx="28" fill="#111111"/>
  <circle cx="652" cy="790" r="56" fill="#111111"/>
  <rect x="600" y="852" width="104" height="170" rx="36" fill="#111111"/>
  <rect x="566" y="904" width="56" height="170" rx="28" fill="#C7D4FF"/>
  <rect x="682" y="904" width="56" height="170" rx="28" fill="#1747FF"/>
  <rect x="344" y="856" width="212" height="124" rx="20" fill="white"/>
  <rect x="362" y="878" width="176" height="78" rx="12" fill="#F2F5FA"/>
</svg>
